<svg width="269" height="269" viewBox="0 0 269 269" fill="none" xmlns="http://www.w3.org/2000/svg">
<path fill-rule="evenodd" clip-rule="evenodd" d="M195.842 182.52L203.831 195.992C204.076 196.412 203.789 197 203.256 197H187.568C187.076 197 186.748 196.412 186.995 195.992L194.696 182.52C194.941 182.059 195.555 182.059 195.842 182.52ZM74.3046 182.479L82.0057 195.951C82.2515 196.412 81.9647 196.957 81.4322 196.957H65.7434C65.2108 196.957 64.924 196.37 65.1698 195.909L73.1576 182.436C73.4034 182.017 74.0178 182.059 74.3046 182.479ZM138.289 55.2725L163.769 80.4116C164.456 81.0775 164.752 82.0724 164.555 82.9869L159.098 103.83V104.04C159.068 104.197 159.06 104.331 159.058 104.459L159.057 104.669C159.098 104.879 159.139 105.089 159.221 105.257V105.299L172.739 134.887C173.107 135.684 173.927 136.188 174.828 136.146L193.589 134.929C194.491 134.887 195.392 135.18 196.088 135.81L208.377 146.764C209.033 147.351 209.196 148.358 208.746 149.114L183.267 193.853C183.02 194.314 182.366 194.314 182.119 193.853L172.125 176.519L137.224 115.959C136.855 115.287 136.651 114.532 136.651 113.776V55.986C136.651 55.1046 137.675 54.6849 138.289 55.2725ZM132.39 55.986V113.735C132.39 114.49 132.186 115.245 131.817 115.917L96.9163 176.477L86.9212 193.81C86.6755 194.272 86.02 194.272 85.7743 193.81L60.2542 149.156C59.8037 148.358 59.9675 147.393 60.6229 146.806L72.9119 135.81C73.6082 135.18 74.5094 134.887 75.4107 134.929L94.1718 136.146C95.032 136.188 95.8922 135.684 96.2609 134.887L109.779 105.299V105.257C109.861 105.047 109.902 104.879 109.943 104.669V104.585C109.943 104.418 109.943 104.208 109.902 104.04V103.83L104.535 83.1815C104.29 82.1743 104.576 81.125 105.273 80.4116L130.752 55.2725C131.366 54.6849 132.39 55.1046 132.39 55.986ZM132.349 125.989V172.616C132.349 174.169 131.121 175.47 129.564 175.47H105.723C104.29 175.47 103.388 173.876 104.126 172.574L131.162 125.654C131.489 125.066 132.349 125.318 132.349 125.989ZM137.839 125.654L164.875 172.532C165.611 173.791 164.71 175.428 163.277 175.428H139.436C137.879 175.428 136.651 174.169 136.651 172.574V125.989C136.651 125.318 137.511 125.066 137.839 125.654ZM183.43 81.4608L166.717 96.4855C166.226 96.9472 165.488 96.4435 165.653 95.8139L168.929 83.2234C168.971 82.9717 169.176 82.7618 169.462 82.7199L182.898 80.2857C183.553 80.1597 183.963 80.9991 183.43 81.4608ZM86.102 80.2857L99.5379 82.7199C99.7838 82.7618 99.9885 82.9717 100.07 83.2234L103.347 95.8139C103.511 96.4435 102.774 96.9472 102.283 96.4855L85.5695 81.4608C85.0779 80.9991 85.4466 80.1597 86.102 80.2857Z" fill="white"/>
</svg>
