<svg width="407" height="407" viewBox="0 0 407 407" fill="none" xmlns="http://www.w3.org/2000/svg">
<path d="M72.6002 257.928V301.776C72.6002 302.592 72.1922 303 71.3762 303H66.8402C66.0242 303 65.6162 302.592 65.6162 301.776V257.928C65.6162 257.112 66.0242 256.704 66.8402 256.704H71.3762C72.1922 256.704 72.6002 257.112 72.6002 257.928Z" fill="#304050"/>
<path d="M96.3551 303H91.8911C91.0751 303 90.6671 302.592 90.6671 301.776V257.928C90.6671 257.112 91.0751 256.704 91.8911 256.704H95.9231C96.6911 256.704 97.2191 256.968 97.5071 257.496L114.931 288.816H115.219V257.928C115.219 257.112 115.627 256.704 116.443 256.704H120.907C121.723 256.704 122.131 257.112 122.131 257.928V301.776C122.131 302.592 121.723 303 120.907 303H117.019C116.251 303 115.627 302.616 115.147 301.848L97.8671 270.888H97.5791V301.776C97.5791 302.592 97.1711 303 96.3551 303Z" fill="#304050"/>
<path d="M138.98 291.768V289.896C138.98 289.08 139.388 288.672 140.204 288.672H144.812C145.628 288.672 146.036 289.08 146.036 289.896V291.192C146.036 293.208 146.468 294.672 147.332 295.584C148.244 296.448 149.732 296.88 151.796 296.88H156.764C158.828 296.88 160.316 296.424 161.228 295.512C162.14 294.552 162.596 293.016 162.596 290.904V289.248C162.596 287.712 161.996 286.512 160.796 285.648C159.644 284.736 158.204 284.16 156.476 283.92C154.748 283.632 152.852 283.248 150.788 282.768C148.724 282.288 146.828 281.736 145.1 281.112C143.372 280.488 141.908 279.312 140.708 277.584C139.556 275.856 138.98 273.648 138.98 270.96V267.936C138.98 264.432 139.964 261.696 141.932 259.728C143.948 257.712 146.708 256.704 150.212 256.704H157.844C161.396 256.704 164.156 257.712 166.124 259.728C168.14 261.696 169.148 264.432 169.148 267.936V269.52C169.148 270.336 168.74 270.744 167.924 270.744H163.316C162.5 270.744 162.092 270.336 162.092 269.52V268.584C162.092 266.52 161.636 265.056 160.724 264.192C159.86 263.28 158.396 262.824 156.332 262.824H151.796C149.732 262.824 148.244 263.304 147.332 264.264C146.468 265.176 146.036 266.76 146.036 269.016V271.248C146.036 273.408 147.596 274.872 150.716 275.64C152.108 275.976 153.62 276.264 155.252 276.504C156.932 276.744 158.612 277.104 160.292 277.584C161.972 278.064 163.508 278.712 164.9 279.528C166.292 280.296 167.42 281.496 168.284 283.128C169.148 284.712 169.58 286.656 169.58 288.96V291.768C169.58 295.272 168.572 298.032 166.556 300.048C164.588 302.016 161.852 303 158.348 303H150.284C146.78 303 144.02 302.016 142.004 300.048C139.988 298.032 138.98 295.272 138.98 291.768Z" fill="#304050"/>
<path d="M193.833 257.928V301.776C193.833 302.592 193.425 303 192.609 303H188.073C187.257 303 186.849 302.592 186.849 301.776V257.928C186.849 257.112 187.257 256.704 188.073 256.704H192.609C193.425 256.704 193.833 257.112 193.833 257.928Z" fill="#304050"/>
<path d="M236.452 303H213.124C212.308 303 211.9 302.592 211.9 301.776V257.928C211.9 257.112 212.308 256.704 213.124 256.704H217.66C218.476 256.704 218.884 257.112 218.884 257.928V296.016C218.884 296.496 219.172 296.736 219.748 296.736H236.452C237.268 296.736 237.676 297.168 237.676 298.032V301.776C237.676 302.592 237.268 303 236.452 303Z" fill="#304050"/>
<path d="M258.858 257.928V301.776C258.858 302.592 258.45 303 257.634 303H253.098C252.282 303 251.874 302.592 251.874 301.776V257.928C251.874 257.112 252.282 256.704 253.098 256.704H257.634C258.45 256.704 258.858 257.112 258.858 257.928Z" fill="#304050"/>
<path d="M295.717 303H287.365C283.813 303 281.053 302.016 279.085 300.048C277.165 298.08 276.205 295.344 276.205 291.84V267.864C276.205 264.312 277.165 261.576 279.085 259.656C281.053 257.688 283.813 256.704 287.365 256.704H295.717C299.221 256.704 301.957 257.688 303.925 259.656C305.893 261.576 306.877 264.312 306.877 267.864V271.32C306.877 272.184 306.445 272.616 305.581 272.616H301.045C300.229 272.616 299.821 272.184 299.821 271.32V268.152C299.821 264.6 298.093 262.824 294.637 262.824H288.373C284.917 262.824 283.189 264.6 283.189 268.152V291.552C283.189 295.104 284.917 296.88 288.373 296.88H294.637C298.093 296.88 299.821 295.104 299.821 291.552V288.384C299.821 287.52 300.229 287.088 301.045 287.088H305.581C306.445 287.088 306.877 287.52 306.877 288.384V291.84C306.877 295.344 305.893 298.08 303.925 300.048C301.957 302.016 299.221 303 295.717 303Z" fill="#304050"/>
<path d="M334.456 296.88H340.72C344.224 296.88 345.976 295.104 345.976 291.552V268.152C345.976 264.6 344.224 262.824 340.72 262.824H334.456C331 262.824 329.272 264.6 329.272 268.152V291.552C329.272 295.104 331 296.88 334.456 296.88ZM341.8 303H333.448C329.896 303 327.136 302.016 325.168 300.048C323.248 298.08 322.288 295.344 322.288 291.84V267.864C322.288 264.312 323.248 261.576 325.168 259.656C327.136 257.688 329.896 256.704 333.448 256.704H341.8C345.352 256.704 348.112 257.688 350.08 259.656C352.048 261.576 353.032 264.312 353.032 267.864V291.84C353.032 295.344 352.048 298.08 350.08 300.048C348.112 302.016 345.352 303 341.8 303Z" fill="#304050"/>
<path fill-rule="evenodd" clip-rule="evenodd" d="M270.842 203.52L278.831 216.992C279.076 217.412 278.789 218 278.256 218H262.568C262.076 218 261.748 217.412 261.995 216.992L269.696 203.52C269.941 203.059 270.555 203.059 270.842 203.52ZM149.305 203.479L157.006 216.951C157.251 217.412 156.965 217.957 156.432 217.957H140.743C140.211 217.957 139.924 217.37 140.17 216.909L148.158 203.436C148.403 203.017 149.018 203.059 149.305 203.479ZM213.289 76.2725L238.769 101.412C239.456 102.077 239.752 103.072 239.555 103.987L234.098 124.83V125.04C234.068 125.197 234.06 125.331 234.058 125.459L234.057 125.669C234.098 125.879 234.139 126.089 234.221 126.257V126.299L247.739 155.887C248.107 156.684 248.927 157.188 249.828 157.146L268.589 155.929C269.491 155.887 270.392 156.18 271.088 156.81L283.377 167.764C284.033 168.351 284.196 169.358 283.746 170.114L258.267 214.853C258.02 215.314 257.366 215.314 257.119 214.853L247.125 197.519L212.224 136.959C211.855 136.287 211.651 135.532 211.651 134.776V76.986C211.651 76.1046 212.675 75.6849 213.289 76.2725ZM207.39 76.986V134.735C207.39 135.49 207.186 136.245 206.817 136.917L171.916 197.477L161.921 214.81C161.675 215.272 161.02 215.272 160.774 214.81L135.254 170.156C134.804 169.358 134.968 168.393 135.623 167.806L147.912 156.81C148.608 156.18 149.509 155.887 150.411 155.929L169.172 157.146C170.032 157.188 170.892 156.684 171.261 155.887L184.779 126.299V126.257C184.861 126.047 184.902 125.879 184.943 125.669V125.585C184.943 125.418 184.943 125.208 184.902 125.04V124.83L179.535 104.181C179.29 103.174 179.576 102.125 180.273 101.412L205.752 76.2725C206.366 75.6849 207.39 76.1046 207.39 76.986ZM207.349 146.989V193.616C207.349 195.169 206.121 196.47 204.564 196.47H180.723C179.29 196.47 178.388 194.876 179.126 193.574L206.162 146.654C206.489 146.066 207.349 146.318 207.349 146.989ZM212.839 146.654L239.875 193.532C240.611 194.791 239.71 196.428 238.277 196.428H214.436C212.879 196.428 211.651 195.169 211.651 193.574V146.989C211.651 146.318 212.511 146.066 212.839 146.654ZM258.43 102.461L241.717 117.485C241.226 117.947 240.488 117.444 240.653 116.814L243.929 104.223C243.971 103.972 244.176 103.762 244.462 103.72L257.898 101.286C258.553 101.16 258.963 101.999 258.43 102.461ZM161.102 101.286L174.538 103.72C174.784 103.762 174.989 103.972 175.07 104.223L178.347 116.814C178.511 117.444 177.774 117.947 177.283 117.485L160.57 102.461C160.078 101.999 160.447 101.16 161.102 101.286Z" fill="#00CC99"/>
</svg>
